<svg width="38" height="36" viewBox="0 0 38 36" fill="none" xmlns="http://www.w3.org/2000/svg">
<g clip-path="url(#clip0_806_859)">
<path d="M33.5552 9.44223C32.5618 9.88242 31.4946 10.1798 30.3728 10.3143C31.5303 9.62163 32.3963 8.53149 32.8092 7.24727C31.7217 7.89325 30.5314 8.34796 29.2902 8.59161C28.4554 7.70038 27.3499 7.10965 26.145 6.91115C24.9402 6.71265 23.7035 6.91748 22.627 7.49383C21.5505 8.07019 20.6944 8.98583 20.1916 10.0986C19.6889 11.2113 19.5675 12.459 19.8465 13.6478C17.6428 13.5371 15.487 12.9643 13.519 11.9666C11.5511 10.9689 9.81486 9.56853 8.42312 7.85639C7.94725 8.67727 7.67362 9.62901 7.67362 10.6426C7.67309 11.5551 7.8978 12.4536 8.3278 13.2584C8.75781 14.0632 9.37982 14.7495 10.1386 15.2562C9.25861 15.2282 8.39799 14.9904 7.62842 14.5626V14.634C7.62833 15.9138 8.07102 17.1542 8.88137 18.1448C9.69172 19.1353 10.8198 19.815 12.0743 20.0685C11.2579 20.2894 10.402 20.322 9.57117 20.1637C9.92509 21.2648 10.6145 22.2278 11.5429 22.9177C12.4713 23.6076 13.5922 23.9899 14.7487 24.0111C12.7855 25.5522 10.361 26.3882 7.86516 26.3845C7.42305 26.3846 6.98132 26.3588 6.54224 26.3072C9.07564 27.9361 12.0247 28.8005 15.0366 28.7972C25.2321 28.7972 30.8058 20.3528 30.8058 13.0291C30.8058 12.7912 30.7999 12.5509 30.7892 12.3129C31.8733 11.5289 32.8091 10.558 33.5528 9.4458L33.5552 9.44223V9.44223Z" fill="white"/>
</g>
<defs>
<clipPath id="clip0_806_859">
<rect width="28.5524" height="28.5524" fill="white" transform="translate(5.42651 3.56946)"/>
</clipPath>
</defs>
</svg>
