<svg width="37" height="36" viewBox="0 0 37 36" fill="none" xmlns="http://www.w3.org/2000/svg">
<path d="M11.549 30.9311H6.36946V14.251H11.549V30.9311ZM8.95646 11.9757C7.3002 11.9757 5.95679 10.6038 5.95679 8.94749C5.95679 8.15191 6.27282 7.38892 6.83537 6.82636C7.39792 6.2638 8.1609 5.94775 8.95646 5.94775C9.75202 5.94775 10.515 6.2638 11.0775 6.82636C11.6401 7.38892 11.9561 8.15191 11.9561 8.94749C11.9561 10.6038 10.6122 11.9757 8.95646 11.9757ZM30.9345 30.9311H25.7661V22.8113C25.7661 20.8762 25.7271 18.3945 23.0732 18.3945C20.3802 18.3945 19.9675 20.497 19.9675 22.6719V30.9311H14.7935V14.251H19.7612V16.5263H19.8337C20.5252 15.2158 22.2144 13.8327 24.7344 13.8327C29.9765 13.8327 30.9401 17.2848 30.9401 21.7685V30.9311H30.9345Z" fill="white"/>
</svg>
