<svg width="38" height="36" viewBox="0 0 38 36" fill="none" xmlns="http://www.w3.org/2000/svg">
<path fill-rule="evenodd" clip-rule="evenodd" d="M13.9813 4.83694C15.3768 4.7727 15.8218 4.75842 19.3765 4.75842C22.9313 4.75842 23.3763 4.77389 24.7706 4.83694C26.1649 4.9 27.1166 5.12247 27.9494 5.44487C28.8214 5.77441 29.6126 6.28954 30.2669 6.95577C30.9331 7.6089 31.4471 8.39885 31.7754 9.27208C32.099 10.1049 32.3203 11.0566 32.3845 12.4485C32.4488 13.8464 32.463 14.2913 32.463 17.8449C32.463 21.3997 32.4476 21.8446 32.3845 23.2401C32.3215 24.6321 32.099 25.5838 31.7754 26.4166C31.4471 27.2899 30.9323 28.0812 30.2669 28.7353C29.6126 29.4015 28.8214 29.9154 27.9494 30.2438C27.1166 30.5674 26.1649 30.7887 24.7729 30.8529C23.3763 30.9172 22.9313 30.9314 19.3765 30.9314C15.8218 30.9314 15.3768 30.916 13.9813 30.8529C12.5894 30.7899 11.6377 30.5674 10.8049 30.2438C9.93156 29.9154 9.1403 29.4006 8.48619 28.7353C7.82042 28.0817 7.30521 27.2909 6.97649 26.4178C6.65408 25.585 6.4328 24.6333 6.36856 23.2413C6.30432 21.8434 6.29004 21.3985 6.29004 17.8449C6.29004 14.2902 6.3055 13.8452 6.36856 12.4509C6.43161 11.0566 6.65408 10.1049 6.97649 9.27208C7.3057 8.39895 7.8213 7.60808 8.48738 6.95458C9.14057 6.28895 9.93103 5.77375 10.8037 5.44487C11.6365 5.12247 12.5882 4.90118 13.9801 4.83694H13.9813ZM24.6647 7.19251C23.2846 7.12946 22.8706 7.11637 19.3765 7.11637C15.8824 7.11637 15.4684 7.12946 14.0884 7.19251C12.8119 7.25081 12.1195 7.46376 11.6579 7.6434C11.0476 7.88134 10.611 8.16329 10.1529 8.62132C9.71876 9.04372 9.38462 9.55794 9.17502 10.1263C8.99538 10.5879 8.78242 11.2803 8.72413 12.5568C8.66108 13.9368 8.64799 14.3508 8.64799 17.8449C8.64799 21.339 8.66108 21.753 8.72413 23.1331C8.78242 24.4096 8.99538 25.102 9.17502 25.5636C9.3844 26.1311 9.7187 26.6462 10.1529 27.0685C10.5753 27.5028 11.0904 27.8371 11.6579 28.0465C12.1195 28.2261 12.8119 28.439 14.0884 28.4973C15.4684 28.5604 15.8813 28.5735 19.3765 28.5735C22.8718 28.5735 23.2846 28.5604 24.6647 28.4973C25.9412 28.439 26.6336 28.2261 27.0952 28.0465C27.7055 27.8085 28.1421 27.5266 28.6002 27.0685C29.0344 26.6462 29.3687 26.1311 29.5781 25.5636C29.7577 25.102 29.9707 24.4096 30.029 23.1331C30.092 21.753 30.1051 21.339 30.1051 17.8449C30.1051 14.3508 30.092 13.9368 30.029 12.5568C29.9707 11.2803 29.7577 10.5879 29.5781 10.1263C29.3401 9.51596 29.0582 9.07935 28.6002 8.62132C28.1777 8.18717 27.6635 7.85304 27.0952 7.6434C26.6336 7.46376 25.9412 7.25081 24.6647 7.19251V7.19251ZM17.705 21.8791C18.6385 22.2677 19.678 22.3202 20.6459 22.0275C21.6137 21.7349 22.45 21.1153 23.0117 20.2745C23.5735 19.4338 23.826 18.4241 23.7261 17.418C23.6261 16.4118 23.18 15.4715 22.4638 14.7577C22.0072 14.3014 21.4552 13.9521 20.8474 13.7348C20.2396 13.5174 19.5912 13.4376 18.9488 13.5009C18.3065 13.5643 17.6862 13.7693 17.1326 14.1012C16.579 14.433 16.1058 14.8835 15.7472 15.4202C15.3886 15.9569 15.1534 16.5664 15.0586 17.2048C14.9638 17.8433 15.0118 18.4948 15.199 19.1126C15.3863 19.7303 15.7081 20.2988 16.1415 20.7772C16.5748 21.2555 17.1088 21.6319 17.705 21.8791ZM14.6202 13.0886C15.2448 12.464 15.9863 11.9685 16.8024 11.6305C17.6185 11.2924 18.4932 11.1184 19.3765 11.1184C20.2599 11.1184 21.1346 11.2924 21.9507 11.6305C22.7668 11.9685 23.5083 12.464 24.1329 13.0886C24.7575 13.7132 25.253 14.4547 25.591 15.2708C25.9291 16.0869 26.103 16.9616 26.103 17.8449C26.103 18.7283 25.9291 19.6029 25.591 20.419C25.253 21.2351 24.7575 21.9767 24.1329 22.6013C22.8714 23.8627 21.1605 24.5714 19.3765 24.5714C17.5926 24.5714 15.8817 23.8627 14.6202 22.6013C13.3587 21.3398 12.65 19.6289 12.65 17.8449C12.65 16.061 13.3587 14.35 14.6202 13.0886V13.0886ZM27.5949 12.1202C27.7497 11.9742 27.8736 11.7986 27.9593 11.6038C28.045 11.4091 28.0907 11.1991 28.0938 10.9863C28.0969 10.7736 28.0573 10.5623 27.9773 10.3652C27.8973 10.168 27.7786 9.98887 27.6281 9.83841C27.4777 9.68795 27.2986 9.56921 27.1014 9.48922C26.9042 9.40922 26.693 9.3696 26.4802 9.3727C26.2675 9.37581 26.0575 9.42157 25.8627 9.50727C25.668 9.59298 25.4924 9.71689 25.3464 9.87168C25.0624 10.1727 24.9069 10.5725 24.913 10.9863C24.919 11.4001 25.0861 11.7952 25.3787 12.0879C25.6713 12.3805 26.0664 12.5475 26.4802 12.5536C26.894 12.5596 27.2938 12.4041 27.5949 12.1202V12.1202Z" fill="white"/>
</svg>
