<svg width="61" height="61" viewBox="0 0 61 61" fill="none" xmlns="http://www.w3.org/2000/svg">
<circle cx="30.3274" cy="30.2268" r="29.3667" fill="white" stroke="#DADADA" stroke-width="0.963895"/>
<path d="M30.486 42.3687C30.3242 42.3703 30.1647 42.3295 30.0236 42.2501C29.5137 41.9656 17.6802 35.2425 17.6802 26.7171C17.6802 25.2239 18.15 23.7686 19.0231 22.5573C19.8961 21.346 21.1282 20.44 22.5448 19.9679C23.9613 19.4957 25.4905 19.4812 26.9158 19.9264C28.3411 20.3716 29.5901 21.254 30.486 22.4485C31.3819 21.254 32.631 20.3716 34.0562 19.9264C35.4815 19.4812 37.0107 19.4957 38.4273 19.9679C39.8438 20.44 41.0759 21.346 41.949 22.5573C42.8221 23.7686 43.2919 25.2239 43.2919 26.7171C43.2919 30.3454 41.1931 34.0686 37.0549 37.7918C35.1759 39.4811 33.1298 40.9749 30.9485 42.2501C30.8073 42.3295 30.6479 42.3703 30.486 42.3687ZM24.7945 21.4999C23.4108 21.4999 22.0838 22.0496 21.1054 23.028C20.127 24.0064 19.5773 25.3334 19.5773 26.7171C19.5773 33.2623 28.3517 39.0131 30.486 40.3174C32.6203 39.0131 41.3947 33.2623 41.3947 26.7171C41.3958 25.511 40.979 24.3418 40.2152 23.4084C39.4514 22.475 38.3878 21.835 37.2053 21.5974C36.0229 21.3598 34.7946 21.5392 33.7295 22.1051C32.6645 22.671 31.8283 23.5885 31.3635 24.7014C31.292 24.8754 31.1704 25.0242 31.0142 25.1289C30.8579 25.2336 30.6741 25.2895 30.486 25.2895C30.2979 25.2895 30.1141 25.2336 29.9579 25.1289C29.8016 25.0242 29.68 24.8754 29.6086 24.7014C29.2138 23.7508 28.5454 22.9389 27.6882 22.3689C26.8311 21.7989 25.8239 21.4964 24.7945 21.4999Z" fill="#989898"/>
</svg>
