<svg width="696" height="402" viewBox="0 0 696 402" fill="none" xmlns="http://www.w3.org/2000/svg">
<g opacity="0.78">
<path d="M453.715 167.776L486.738 188.367C493.142 192.36 496.345 194.357 499.764 195.244C503.331 196.17 507.067 196.229 510.662 195.416C514.107 194.636 517.371 192.741 523.897 188.951V188.951" stroke="url(#paint0_linear_806_3361)" stroke-width="2.09944" stroke-linecap="round"/>
<path opacity="0.6" d="M375.668 212.547L484.572 276.074" stroke="url(#paint1_linear_806_3361)" stroke-width="2.09944" stroke-linecap="round"/>
<path d="M345.416 59.4769L398.704 27.3349C409.813 20.6345 415.367 17.2842 421.524 17.1517C421.641 17.1492 421.758 17.1476 421.875 17.1468C428.034 17.1078 433.679 20.3019 444.97 26.6902V26.6902C455.954 32.9051 461.447 36.0126 467.454 36.0481C467.568 36.0488 467.682 36.0486 467.796 36.0476C473.803 35.994 479.286 32.87 490.252 26.6221L519.662 9.86523" stroke="url(#paint2_linear_806_3361)" stroke-width="2.09944" stroke-linecap="round"/>
<path d="M334.526 291.805L352.983 302.208C362.271 307.443 373.528 307.817 383.143 303.21V303.21C391.83 299.047 401.911 298.931 410.692 302.891L411.362 303.193C421.595 307.808 433.44 307.116 443.066 301.34L472.61 283.614C490.546 272.853 499.513 267.472 509.448 267.351C519.382 267.229 528.478 272.389 546.671 282.709L573.7 298.041C592.75 308.847 602.274 314.25 612.623 313.904C622.972 313.558 632.115 307.531 650.4 295.476L694.513 266.394" stroke="url(#paint3_linear_806_3361)" stroke-width="2.09944" stroke-linecap="round"/>
<path d="M288.544 295.435L283.917 298.327C274.344 304.31 269.557 307.302 264.396 308.082C261.28 308.553 258.104 308.435 255.032 307.735C249.942 306.574 245.391 303.236 236.287 296.561V296.561C227.574 290.171 223.217 286.976 218.333 285.787C215.382 285.068 212.325 284.889 209.31 285.258C204.321 285.869 199.621 288.534 190.221 293.863L1.76465 400.709" stroke="url(#paint4_linear_806_3361)" stroke-width="2.09944" stroke-linecap="round"/>
<path opacity="0.6" d="M105.828 162.936L179.839 118.08C192.418 110.456 198.708 106.645 205.677 106.609C212.646 106.574 218.974 110.321 231.63 117.817L242.28 124.124C254.805 131.541 261.067 135.25 267.972 135.248C274.876 135.246 281.136 131.534 293.657 124.109L372.036 77.6277" stroke="#0CABBB" stroke-width="2.09944" stroke-linecap="round"/>
<path d="M289.15 270.629L47.1417 130.87" stroke="url(#paint5_linear_806_3361)" stroke-width="2.09944" stroke-linecap="round"/>
<path d="M332.106 271.234L349.728 260.736C354.619 257.822 357.065 256.365 357.18 254.121C357.294 251.878 355.01 250.179 350.441 246.782L346.986 244.213C342.442 240.834 340.17 239.144 340.278 236.908C340.385 234.672 342.81 233.209 347.658 230.284L372.038 215.572" stroke="#3F13B9" stroke-width="2.09944" stroke-linecap="round"/>
<path d="M332.105 271.234L349.727 260.736C354.618 257.822 357.064 256.365 357.178 254.122C357.293 251.878 355.009 250.18 350.44 246.782L347.018 244.238C342.461 240.849 340.182 239.155 340.294 236.915C340.405 234.675 342.841 233.215 347.713 230.296L477.321 152.634C482.715 149.402 485.412 147.786 485.406 145.4C485.4 143.014 482.695 141.411 477.285 138.206L247.402 2" stroke="url(#paint6_linear_806_3361)" stroke-width="2.09944" stroke-linecap="round"/>
<path d="M337.872 283.335C337.872 287.341 335.212 291.305 330.193 294.379C325.209 297.43 318.19 299.386 310.326 299.386C302.462 299.386 295.443 297.43 290.459 294.379C285.44 291.305 282.779 287.341 282.779 283.335C282.779 279.329 285.44 275.364 290.459 272.291C295.443 269.239 302.462 267.283 310.326 267.283C318.19 267.283 325.209 269.239 330.193 272.291C335.212 275.364 337.872 279.329 337.872 283.335Z" stroke="#00942D" stroke-width="4.19888"/>
<g filter="url(#filter0_f_806_3361)">
<path d="M337.872 283.335C337.872 287.341 335.212 291.305 330.193 294.379C325.209 297.43 318.19 299.386 310.326 299.386C302.462 299.386 295.443 297.43 290.459 294.379C285.44 291.305 282.779 287.341 282.779 283.335C282.779 279.329 285.44 275.364 290.459 272.291C295.443 269.239 302.462 267.283 310.326 267.283C318.19 267.283 325.209 269.239 330.193 272.291C335.212 275.364 337.872 279.329 337.872 283.335Z" stroke="#00942D" stroke-width="4.19888"/>
</g>
<ellipse cx="376.738" cy="214.224" rx="9.68033" ry="6.65522" fill="#00942D"/>
<g filter="url(#filter1_f_806_3361)">
<ellipse cx="376.738" cy="214.224" rx="9.68033" ry="6.65522" fill="#00942D"/>
</g>
<ellipse cx="104.012" cy="343.231" rx="9.68033" ry="6.65522" fill="#00942D"/>
<g filter="url(#filter2_f_806_3361)">
<ellipse cx="104.012" cy="343.231" rx="9.68033" ry="6.65522" fill="#00942D"/>
</g>
<path d="M564.151 285.754C564.151 287.507 563.085 289.351 560.832 290.852C558.595 292.344 555.383 293.335 551.729 293.335C548.076 293.335 544.864 292.344 542.626 290.852C540.374 289.351 539.308 287.507 539.308 285.754C539.308 284.002 540.374 282.158 542.626 280.656C544.864 279.164 548.076 278.173 551.729 278.173C555.383 278.173 558.595 279.164 560.832 280.656C563.085 282.158 564.151 284.002 564.151 285.754Z" stroke="#3F13B9" stroke-width="4.19888"/>
<g filter="url(#filter3_f_806_3361)">
<path d="M564.151 285.754C564.151 287.507 563.085 289.351 560.832 290.852C558.595 292.344 555.383 293.335 551.729 293.335C548.076 293.335 544.864 292.344 542.626 290.852C540.374 289.351 539.308 287.507 539.308 285.754C539.308 284.002 540.374 282.158 542.626 280.656C544.864 279.164 548.076 278.173 551.729 278.173C555.383 278.173 558.595 279.164 560.832 280.656C563.085 282.158 564.151 284.002 564.151 285.754Z" stroke="#3F13B9" stroke-width="4.19888"/>
</g>
<ellipse cx="399.264" cy="90.9381" rx="19.3607" ry="12.1004" fill="#30E6F8" fill-opacity="0.6"/>
<ellipse cx="399.264" cy="90.9382" rx="14.5205" ry="8.47029" fill="#019830"/>
<ellipse cx="399.263" cy="90.9384" rx="9.68033" ry="4.84016" fill="#1B2FAC"/>
<path d="M408.378 67.1519L408.379 67.1511C412.725 61.6298 412.725 52.6923 408.379 47.1709C406.202 44.4044 403.337 43.0092 400.46 43.0092C397.583 43.0092 394.719 44.4044 392.541 47.1709C388.196 52.6923 388.196 61.6298 392.541 67.1511L392.689 67.035L392.541 67.1511C392.915 67.626 393.379 68.2091 393.933 68.9002L393.934 68.9008L398.339 74.3464L398.34 74.3468C398.922 75.0622 399.685 75.431 400.46 75.4311C401.235 75.4312 401.999 75.0625 402.581 74.3472C404.343 72.183 405.776 70.4122 406.88 69.0349L406.88 69.0344L408.378 67.1519ZM394.177 49.1055C395.921 46.8889 398.197 45.7925 400.46 45.7925C402.724 45.7925 404.999 46.8889 406.743 49.1055C410.242 53.5504 410.242 60.7716 406.743 65.2165C406.343 65.7251 405.847 66.3483 405.256 67.086C405.256 67.0861 405.256 67.0862 405.255 67.0863L400.972 72.3795C400.972 72.3795 400.972 72.3796 400.972 72.3796C400.82 72.5658 400.635 72.6478 400.46 72.6478C400.286 72.6478 400.101 72.5657 399.949 72.3793C398.385 70.457 397.086 68.8531 396.053 67.5685C396.053 67.5684 396.052 67.5683 396.052 67.5682L394.177 65.2165C394.177 65.2163 394.177 65.2161 394.176 65.216C390.679 60.7711 390.679 53.5502 394.177 49.1055ZM404.437 57.6023C404.437 54.8844 402.696 52.6002 400.46 52.6002C398.224 52.6002 396.483 54.8844 396.483 57.6023C396.483 60.3203 398.224 62.6044 400.46 62.6044C402.696 62.6044 404.437 60.3203 404.437 57.6023ZM398.754 57.6023C398.754 56.3322 399.558 55.3834 400.46 55.3834C401.363 55.3834 402.166 56.3322 402.166 57.6023C402.166 58.8725 401.363 59.8212 400.46 59.8212C399.558 59.8212 398.754 58.8725 398.754 57.6023Z" fill="url(#paint7_linear_806_3361)" stroke="url(#paint8_linear_806_3361)" stroke-width="0.377899"/>
</g>
<defs>
<filter id="filter0_f_806_3361" x="276.481" y="260.985" width="67.6897" height="44.699" filterUnits="userSpaceOnUse" color-interpolation-filters="sRGB">
<feFlood flood-opacity="0" result="BackgroundImageFix"/>
<feBlend mode="normal" in="SourceGraphic" in2="BackgroundImageFix" result="shape"/>
<feGaussianBlur stdDeviation="2.09944" result="effect1_foregroundBlur_806_3361"/>
</filter>
<filter id="filter1_f_806_3361" x="362.858" y="203.37" width="27.7584" height="21.7082" filterUnits="userSpaceOnUse" color-interpolation-filters="sRGB">
<feFlood flood-opacity="0" result="BackgroundImageFix"/>
<feBlend mode="normal" in="SourceGraphic" in2="BackgroundImageFix" result="shape"/>
<feGaussianBlur stdDeviation="2.09944" result="effect1_foregroundBlur_806_3361"/>
</filter>
<filter id="filter2_f_806_3361" x="90.1327" y="332.377" width="27.7584" height="21.7082" filterUnits="userSpaceOnUse" color-interpolation-filters="sRGB">
<feFlood flood-opacity="0" result="BackgroundImageFix"/>
<feBlend mode="normal" in="SourceGraphic" in2="BackgroundImageFix" result="shape"/>
<feGaussianBlur stdDeviation="2.09944" result="effect1_foregroundBlur_806_3361"/>
</filter>
<filter id="filter3_f_806_3361" x="528.811" y="267.676" width="45.8365" height="36.1561" filterUnits="userSpaceOnUse" color-interpolation-filters="sRGB">
<feFlood flood-opacity="0" result="BackgroundImageFix"/>
<feBlend mode="normal" in="SourceGraphic" in2="BackgroundImageFix" result="shape"/>
<feGaussianBlur stdDeviation="4.19888" result="effect1_foregroundBlur_806_3361"/>
</filter>
<linearGradient id="paint0_linear_806_3361" x1="454.925" y1="167.171" x2="527.528" y2="188.346" gradientUnits="userSpaceOnUse">
<stop stop-color="#07BCCE"/>
<stop offset="0.739583" stop-color="#30E6F8"/>
<stop offset="1" stop-color="#30E6F8" stop-opacity="0"/>
</linearGradient>
<linearGradient id="paint1_linear_806_3361" x1="377.546" y1="211.349" x2="493.725" y2="237.89" gradientUnits="userSpaceOnUse">
<stop stop-color="#30E6F8"/>
<stop offset="1" stop-color="#30E6F8"/>
</linearGradient>
<linearGradient id="paint2_linear_806_3361" x1="520.267" y1="9.86525" x2="349.046" y2="58.8719" gradientUnits="userSpaceOnUse">
<stop stop-color="#30E6F8" stop-opacity="0"/>
<stop offset="0.213542" stop-color="#30E6F8"/>
<stop offset="1" stop-color="#07BCCE"/>
</linearGradient>
<linearGradient id="paint3_linear_806_3361" x1="335.131" y1="290.595" x2="694.513" y2="261.554" gradientUnits="userSpaceOnUse">
<stop stop-color="#30E6F8"/>
<stop offset="0.71875" stop-color="#3F13B9"/>
<stop offset="1" stop-color="#3F13B9" stop-opacity="0"/>
</linearGradient>
<linearGradient id="paint4_linear_806_3361" x1="289.149" y1="295.435" x2="2.36968" y2="400.709" gradientUnits="userSpaceOnUse">
<stop stop-color="#3F13B9"/>
<stop offset="0.723958" stop-color="#3F13B9"/>
<stop offset="1" stop-color="#3F13B9" stop-opacity="0"/>
</linearGradient>
<linearGradient id="paint5_linear_806_3361" x1="47.1417" y1="130.87" x2="289.15" y2="271.234" gradientUnits="userSpaceOnUse">
<stop stop-color="#07BCCE" stop-opacity="0"/>
<stop offset="0.208333" stop-color="#07BCCE"/>
<stop offset="1" stop-color="#07BCCE"/>
</linearGradient>
<linearGradient id="paint6_linear_806_3361" x1="252.242" y1="2.60502" x2="368.406" y2="271.234" gradientUnits="userSpaceOnUse">
<stop stop-color="#07BDCF" stop-opacity="0"/>
<stop offset="0.28021" stop-color="#07BDCF"/>
<stop offset="1" stop-color="#07BDCF"/>
</linearGradient>
<linearGradient id="paint7_linear_806_3361" x1="400.46" y1="43.1982" x2="400.46" y2="75.2421" gradientUnits="userSpaceOnUse">
<stop stop-color="#019830"/>
<stop offset="1" stop-color="#30E6F8"/>
</linearGradient>
<linearGradient id="paint8_linear_806_3361" x1="400.46" y1="43.1982" x2="400.46" y2="75.2421" gradientUnits="userSpaceOnUse">
<stop stop-color="#019830"/>
<stop offset="1" stop-color="#019830" stop-opacity="0"/>
</linearGradient>
</defs>
</svg>
