<svg width="696" height="402" viewBox="0 0 696 402" fill="none" xmlns="http://www.w3.org/2000/svg">
<g opacity="0.78">
<path d="M453.951 167.775L486.974 188.366C493.379 192.36 496.581 194.356 500 195.244C503.567 196.17 507.304 196.228 510.898 195.415C514.343 194.636 517.607 192.741 524.134 188.951V188.951" stroke="url(#paint0_linear_806_2587)" stroke-width="2.09944" stroke-linecap="round"/>
<path opacity="0.6" d="M375.904 212.547L484.808 276.074" stroke="url(#paint1_linear_806_2587)" stroke-width="2.09944" stroke-linecap="round"/>
<path d="M345.652 59.4769L398.94 27.3349C410.049 20.6345 415.603 17.2842 421.761 17.1517C421.877 17.1492 421.994 17.1476 422.111 17.1468C428.27 17.1078 433.915 20.3019 445.206 26.6902V26.6902C456.191 32.9051 461.683 36.0126 467.69 36.0481C467.804 36.0488 467.918 36.0486 468.032 36.0476C474.04 35.994 479.522 32.87 490.488 26.6221L519.898 9.86523" stroke="url(#paint2_linear_806_2587)" stroke-width="2.09944" stroke-linecap="round"/>
<path d="M334.762 291.805L353.219 302.208C362.506 307.443 373.764 307.817 383.378 303.21V303.21C392.065 299.047 402.147 298.93 410.928 302.89L411.598 303.193C421.831 307.808 433.676 307.115 443.302 301.34L472.846 283.613C490.781 272.852 499.749 267.472 509.683 267.351C519.618 267.229 528.714 272.389 546.907 282.709L573.936 298.041C592.985 308.847 602.51 314.25 612.859 313.904C623.208 313.558 632.351 307.53 650.635 295.476L694.749 266.394" stroke="url(#paint3_linear_806_2587)" stroke-width="2.09944" stroke-linecap="round"/>
<path d="M288.78 295.435L284.152 298.327C274.579 304.31 269.793 307.302 264.632 308.082C261.516 308.553 258.339 308.435 255.267 307.735C250.178 306.574 245.626 303.236 236.523 296.561V296.561C227.809 290.171 223.453 286.976 218.568 285.787C215.617 285.068 212.56 284.889 209.546 285.258C204.556 285.869 199.856 288.534 190.456 293.863L2 400.709" stroke="url(#paint4_linear_806_2587)" stroke-width="2.09944" stroke-linecap="round"/>
<path opacity="0.6" d="M106.062 162.936L180.074 118.08C192.653 110.457 198.943 106.645 205.912 106.609C212.881 106.574 219.209 110.321 231.865 117.817L242.515 124.124C255.04 131.541 261.302 135.25 268.207 135.248C275.111 135.246 281.371 131.534 293.892 124.109L372.271 77.6279" stroke="#0CABBB" stroke-width="2.09944" stroke-linecap="round"/>
<path d="M289.385 270.629L47.377 130.869" stroke="url(#paint5_linear_806_2587)" stroke-width="2.09944" stroke-linecap="round"/>
<path d="M332.342 271.234L349.964 260.736C354.855 257.822 357.301 256.365 357.415 254.122C357.53 251.878 355.245 250.18 350.677 246.783L347.221 244.213C342.677 240.834 340.405 239.145 340.513 236.909C340.621 234.673 343.045 233.21 347.893 230.284L372.273 215.572" stroke="#3F13B9" stroke-width="2.09944" stroke-linecap="round"/>
<path d="M332.34 271.234L349.962 260.736C354.853 257.822 357.298 256.365 357.413 254.122C357.528 251.878 355.243 250.18 350.674 246.782L347.253 244.238C342.695 240.849 340.417 239.155 340.528 236.915C340.64 234.675 343.076 233.215 347.947 230.296L477.555 152.634C482.95 149.402 485.647 147.786 485.641 145.4C485.635 143.014 482.93 141.411 477.52 138.206L247.637 2" stroke="url(#paint6_linear_806_2587)" stroke-width="2.09944" stroke-linecap="round"/>
<path d="M338.109 283.334C338.109 287.34 335.448 291.305 330.429 294.378C325.445 297.43 318.426 299.385 310.562 299.385C302.698 299.385 295.679 297.43 290.695 294.378C285.676 291.305 283.015 287.34 283.015 283.334C283.015 279.328 285.676 275.363 290.695 272.29C295.679 269.239 302.698 267.283 310.562 267.283C318.426 267.283 325.445 269.239 330.429 272.29C335.448 275.363 338.109 279.328 338.109 283.334Z" stroke="#00942D" stroke-width="4.19888"/>
<g filter="url(#filter0_f_806_2587)">
<path d="M338.109 283.334C338.109 287.34 335.448 291.305 330.429 294.378C325.445 297.43 318.426 299.385 310.562 299.385C302.698 299.385 295.679 297.43 290.695 294.378C285.676 291.305 283.015 287.34 283.015 283.334C283.015 279.328 285.676 275.363 290.695 272.29C295.679 269.239 302.698 267.283 310.562 267.283C318.426 267.283 325.445 269.239 330.429 272.29C335.448 275.363 338.109 279.328 338.109 283.334Z" stroke="#00942D" stroke-width="4.19888"/>
</g>
<ellipse cx="376.973" cy="214.224" rx="9.68033" ry="6.65522" fill="#00942D"/>
<g filter="url(#filter1_f_806_2587)">
<ellipse cx="376.973" cy="214.224" rx="9.68033" ry="6.65522" fill="#00942D"/>
</g>
<ellipse cx="104.247" cy="343.231" rx="9.68033" ry="6.65522" fill="#00942D"/>
<g filter="url(#filter2_f_806_2587)">
<ellipse cx="104.247" cy="343.231" rx="9.68033" ry="6.65522" fill="#00942D"/>
</g>
<path d="M564.387 285.755C564.387 287.507 563.321 289.351 561.069 290.853C558.831 292.345 555.619 293.335 551.966 293.335C548.313 293.335 545.1 292.345 542.863 290.853C540.61 289.351 539.545 287.507 539.545 285.755C539.545 284.002 540.61 282.158 542.863 280.656C545.1 279.165 548.313 278.174 551.966 278.174C555.619 278.174 558.831 279.165 561.069 280.656C563.321 282.158 564.387 284.002 564.387 285.755Z" stroke="#3F13B9" stroke-width="4.19888"/>
<g filter="url(#filter3_f_806_2587)">
<path d="M564.387 285.755C564.387 287.507 563.321 289.351 561.069 290.853C558.831 292.345 555.619 293.335 551.966 293.335C548.313 293.335 545.1 292.345 542.863 290.853C540.61 289.351 539.545 287.507 539.545 285.755C539.545 284.002 540.61 282.158 542.863 280.656C545.1 279.165 548.313 278.174 551.966 278.174C555.619 278.174 558.831 279.165 561.069 280.656C563.321 282.158 564.387 284.002 564.387 285.755Z" stroke="#3F13B9" stroke-width="4.19888"/>
</g>
<ellipse cx="399.499" cy="90.9383" rx="19.3607" ry="12.1004" fill="#30E6F8" fill-opacity="0.6"/>
<ellipse cx="399.499" cy="90.9381" rx="14.5205" ry="8.47029" fill="#019830"/>
<ellipse cx="399.498" cy="90.9386" rx="9.68033" ry="4.84016" fill="#040612"/>
<path d="M408.614 67.152L408.615 67.1512C412.96 61.6298 412.96 52.6924 408.615 47.171C406.438 44.4044 403.573 43.0093 400.696 43.0093C397.819 43.0093 394.955 44.4044 392.777 47.171C388.432 52.6924 388.432 61.6298 392.777 67.1512L392.925 67.035L392.777 67.1512C393.151 67.6261 393.615 68.2092 394.169 68.9002L394.169 68.9009L398.575 74.3465L398.576 74.3469C399.158 75.0623 399.921 75.4311 400.696 75.4312C401.471 75.4312 402.234 75.0625 402.817 74.3472C404.578 72.183 406.011 70.4123 407.116 69.035L407.116 69.0344L408.614 67.152ZM394.413 49.1056C396.157 46.889 398.433 45.7925 400.696 45.7925C402.959 45.7925 405.235 46.889 406.979 49.1056C410.478 53.5505 410.478 60.7717 406.979 65.2165C406.579 65.7252 406.083 66.3483 405.492 67.086C405.492 67.0861 405.491 67.0863 405.491 67.0864L401.208 72.3796C401.208 72.3796 401.208 72.3796 401.208 72.3797C401.056 72.5659 400.87 72.6479 400.696 72.6479C400.522 72.6478 400.336 72.5657 400.185 72.3794C398.62 70.457 397.322 68.8532 396.288 67.5685C396.288 67.5684 396.288 67.5683 396.288 67.5682L394.413 65.2165C394.413 65.2164 394.412 65.2162 394.412 65.216C390.914 60.7711 390.915 53.5503 394.413 49.1056ZM404.673 57.6024C404.673 54.8844 402.932 52.6002 400.696 52.6002C398.46 52.6002 396.719 54.8844 396.719 57.6024C396.719 60.3203 398.46 62.6045 400.696 62.6045C402.932 62.6045 404.673 60.3203 404.673 57.6024ZM398.99 57.6024C398.99 56.3322 399.793 55.3835 400.696 55.3835C401.599 55.3835 402.402 56.3322 402.402 57.6024C402.402 58.8725 401.599 59.8212 400.696 59.8212C399.793 59.8212 398.99 58.8726 398.99 57.6024Z" fill="url(#paint7_linear_806_2587)" stroke="url(#paint8_linear_806_2587)" stroke-width="0.377899"/>
</g>
<defs>
<filter id="filter0_f_806_2587" x="276.717" y="260.985" width="67.6897" height="44.699" filterUnits="userSpaceOnUse" color-interpolation-filters="sRGB">
<feFlood flood-opacity="0" result="BackgroundImageFix"/>
<feBlend mode="normal" in="SourceGraphic" in2="BackgroundImageFix" result="shape"/>
<feGaussianBlur stdDeviation="2.09944" result="effect1_foregroundBlur_806_2587"/>
</filter>
<filter id="filter1_f_806_2587" x="363.094" y="203.369" width="27.7584" height="21.7082" filterUnits="userSpaceOnUse" color-interpolation-filters="sRGB">
<feFlood flood-opacity="0" result="BackgroundImageFix"/>
<feBlend mode="normal" in="SourceGraphic" in2="BackgroundImageFix" result="shape"/>
<feGaussianBlur stdDeviation="2.09944" result="effect1_foregroundBlur_806_2587"/>
</filter>
<filter id="filter2_f_806_2587" x="90.3675" y="332.377" width="27.7584" height="21.7082" filterUnits="userSpaceOnUse" color-interpolation-filters="sRGB">
<feFlood flood-opacity="0" result="BackgroundImageFix"/>
<feBlend mode="normal" in="SourceGraphic" in2="BackgroundImageFix" result="shape"/>
<feGaussianBlur stdDeviation="2.09944" result="effect1_foregroundBlur_806_2587"/>
</filter>
<filter id="filter3_f_806_2587" x="529.048" y="267.676" width="45.8365" height="36.1561" filterUnits="userSpaceOnUse" color-interpolation-filters="sRGB">
<feFlood flood-opacity="0" result="BackgroundImageFix"/>
<feBlend mode="normal" in="SourceGraphic" in2="BackgroundImageFix" result="shape"/>
<feGaussianBlur stdDeviation="4.19888" result="effect1_foregroundBlur_806_2587"/>
</filter>
<linearGradient id="paint0_linear_806_2587" x1="455.161" y1="167.17" x2="527.764" y2="188.346" gradientUnits="userSpaceOnUse">
<stop stop-color="#07BCCE"/>
<stop offset="0.739583" stop-color="#30E6F8"/>
<stop offset="1" stop-color="#30E6F8" stop-opacity="0"/>
</linearGradient>
<linearGradient id="paint1_linear_806_2587" x1="377.782" y1="211.348" x2="493.962" y2="237.889" gradientUnits="userSpaceOnUse">
<stop stop-color="#30E6F8"/>
<stop offset="1" stop-color="#30E6F8"/>
</linearGradient>
<linearGradient id="paint2_linear_806_2587" x1="520.503" y1="9.86525" x2="349.282" y2="58.8719" gradientUnits="userSpaceOnUse">
<stop stop-color="#30E6F8" stop-opacity="0"/>
<stop offset="0.213542" stop-color="#30E6F8"/>
<stop offset="1" stop-color="#07BCCE"/>
</linearGradient>
<linearGradient id="paint3_linear_806_2587" x1="335.367" y1="290.595" x2="694.749" y2="261.554" gradientUnits="userSpaceOnUse">
<stop stop-color="#30E6F8"/>
<stop offset="0.71875" stop-color="#3F13B9"/>
<stop offset="1" stop-color="#3F13B9" stop-opacity="0"/>
</linearGradient>
<linearGradient id="paint4_linear_806_2587" x1="289.385" y1="295.435" x2="2.60504" y2="400.709" gradientUnits="userSpaceOnUse">
<stop stop-color="#1E1732"/>
<stop offset="0.723958" stop-color="#3F13B9"/>
<stop offset="1" stop-color="#3F13B9" stop-opacity="0"/>
</linearGradient>
<linearGradient id="paint5_linear_806_2587" x1="47.377" y1="130.869" x2="289.385" y2="271.234" gradientUnits="userSpaceOnUse">
<stop stop-color="#07BCCE" stop-opacity="0"/>
<stop offset="0.208333" stop-color="#07BCCE"/>
<stop offset="1" stop-color="#07BCCE"/>
</linearGradient>
<linearGradient id="paint6_linear_806_2587" x1="252.477" y1="2.60502" x2="368.641" y2="271.234" gradientUnits="userSpaceOnUse">
<stop stop-color="#07BDCF" stop-opacity="0"/>
<stop offset="0.28021" stop-color="#07BDCF"/>
<stop offset="1" stop-color="#07BDCF"/>
</linearGradient>
<linearGradient id="paint7_linear_806_2587" x1="400.696" y1="43.1982" x2="400.696" y2="75.2422" gradientUnits="userSpaceOnUse">
<stop stop-color="#019830"/>
<stop offset="1" stop-color="#30E6F8"/>
</linearGradient>
<linearGradient id="paint8_linear_806_2587" x1="400.696" y1="43.1982" x2="400.696" y2="75.2422" gradientUnits="userSpaceOnUse">
<stop stop-color="#019830"/>
<stop offset="1" stop-color="#019830" stop-opacity="0"/>
</linearGradient>
</defs>
</svg>
