<svg width="16" height="15" viewBox="0 0 16 15" fill="none" xmlns="http://www.w3.org/2000/svg">
<path d="M6.11035 3.12458C5.94459 3.12458 5.78562 3.19043 5.66841 3.30764C5.5512 3.42485 5.48535 3.58382 5.48535 3.74958C5.48535 3.91534 5.5512 4.07431 5.66841 4.19152C5.78562 4.30873 5.94459 4.37458 6.11035 4.37458C6.27611 4.37458 6.43508 4.30873 6.55229 4.19152C6.6695 4.07431 6.73535 3.91534 6.73535 3.74958C6.73535 3.58382 6.6695 3.42485 6.55229 3.30764C6.43508 3.19043 6.27611 3.12458 6.11035 3.12458ZM4.3416 3.12458C4.47073 2.75862 4.71019 2.44172 5.02698 2.21757C5.34376 1.99342 5.72228 1.87305 6.11035 1.87305C6.49842 1.87305 6.87694 1.99342 7.19373 2.21757C7.51051 2.44172 7.74998 2.75862 7.8791 3.12458H12.3604C12.5261 3.12458 12.6851 3.19043 12.8023 3.30764C12.9195 3.42485 12.9854 3.58382 12.9854 3.74958C12.9854 3.91534 12.9195 4.07431 12.8023 4.19152C12.6851 4.30873 12.5261 4.37458 12.3604 4.37458H7.8791C7.74998 4.74054 7.51051 5.05743 7.19373 5.28159C6.87694 5.50574 6.49842 5.62611 6.11035 5.62611C5.72228 5.62611 5.34376 5.50574 5.02698 5.28159C4.71019 5.05743 4.47073 4.74054 4.3416 4.37458H3.61035C3.44459 4.37458 3.28562 4.30873 3.16841 4.19152C3.0512 4.07431 2.98535 3.91534 2.98535 3.74958C2.98535 3.58382 3.0512 3.42485 3.16841 3.30764C3.28562 3.19043 3.44459 3.12458 3.61035 3.12458H4.3416ZM9.86035 6.87458C9.69459 6.87458 9.53562 6.94043 9.41841 7.05764C9.3012 7.17485 9.23535 7.33382 9.23535 7.49958C9.23535 7.66534 9.3012 7.82431 9.41841 7.94152C9.53562 8.05873 9.69459 8.12458 9.86035 8.12458C10.0261 8.12458 10.1851 8.05873 10.3023 7.94152C10.4195 7.82431 10.4854 7.66534 10.4854 7.49958C10.4854 7.33382 10.4195 7.17485 10.3023 7.05764C10.1851 6.94043 10.0261 6.87458 9.86035 6.87458ZM8.0916 6.87458C8.22073 6.50862 8.46019 6.19172 8.77698 5.96757C9.09376 5.74342 9.47228 5.62305 9.86035 5.62305C10.2484 5.62305 10.6269 5.74342 10.9437 5.96757C11.2605 6.19172 11.5 6.50862 11.6291 6.87458H12.3604C12.5261 6.87458 12.6851 6.94043 12.8023 7.05764C12.9195 7.17485 12.9854 7.33382 12.9854 7.49958C12.9854 7.66534 12.9195 7.82431 12.8023 7.94152C12.6851 8.05873 12.5261 8.12458 12.3604 8.12458H11.6291C11.5 8.49054 11.2605 8.80743 10.9437 9.03158C10.6269 9.25574 10.2484 9.37611 9.86035 9.37611C9.47228 9.37611 9.09376 9.25574 8.77698 9.03158C8.46019 8.80743 8.22073 8.49054 8.0916 8.12458H3.61035C3.44459 8.12458 3.28562 8.05873 3.16841 7.94152C3.0512 7.82431 2.98535 7.66534 2.98535 7.49958C2.98535 7.33382 3.0512 7.17485 3.16841 7.05764C3.28562 6.94043 3.44459 6.87458 3.61035 6.87458H8.0916ZM6.11035 10.6246C5.94459 10.6246 5.78562 10.6904 5.66841 10.8076C5.5512 10.9248 5.48535 11.0838 5.48535 11.2496C5.48535 11.4153 5.5512 11.5743 5.66841 11.6915C5.78562 11.8087 5.94459 11.8746 6.11035 11.8746C6.27611 11.8746 6.43508 11.8087 6.55229 11.6915C6.6695 11.5743 6.73535 11.4153 6.73535 11.2496C6.73535 11.0838 6.6695 10.9248 6.55229 10.8076C6.43508 10.6904 6.27611 10.6246 6.11035 10.6246ZM4.3416 10.6246C4.47073 10.2586 4.71019 9.94172 5.02698 9.71757C5.34376 9.49342 5.72228 9.37305 6.11035 9.37305C6.49842 9.37305 6.87694 9.49342 7.19373 9.71757C7.51051 9.94172 7.74998 10.2586 7.8791 10.6246H12.3604C12.5261 10.6246 12.6851 10.6904 12.8023 10.8076C12.9195 10.9248 12.9854 11.0838 12.9854 11.2496C12.9854 11.4153 12.9195 11.5743 12.8023 11.6915C12.6851 11.8087 12.5261 11.8746 12.3604 11.8746H7.8791C7.74998 12.2405 7.51051 12.5574 7.19373 12.7816C6.87694 13.0057 6.49842 13.1261 6.11035 13.1261C5.72228 13.1261 5.34376 13.0057 5.02698 12.7816C4.71019 12.5574 4.47073 12.2405 4.3416 11.8746H3.61035C3.44459 11.8746 3.28562 11.8087 3.16841 11.6915C3.0512 11.5743 2.98535 11.4153 2.98535 11.2496C2.98535 11.0838 3.0512 10.9248 3.16841 10.8076C3.28562 10.6904 3.44459 10.6246 3.61035 10.6246H4.3416Z" fill="#585858"/>
</svg>
