<svg width="148" height="52" viewBox="0 0 148 52" fill="none" xmlns="http://www.w3.org/2000/svg">
<path d="M0.463135 4.58855C0.463135 2.3533 2.27516 0.541265 4.51041 0.541265H143.344C145.58 0.541265 147.392 2.35329 147.392 4.58854V47.085C147.392 49.3202 145.58 51.1323 143.344 51.1323H4.51042C2.27517 51.1323 0.463135 49.3202 0.463135 47.085V25.8368V4.58855Z" fill="white"/>
<path d="M4.51041 0.79422H143.344C145.44 0.79422 147.139 2.493 147.139 4.58854V47.085C147.139 49.1805 145.44 50.8793 143.344 50.8793H4.51042C2.41487 50.8793 0.71609 49.1805 0.71609 47.085V25.8368V4.58855C0.71609 2.493 2.41487 0.79422 4.51041 0.79422Z" stroke="#444444" stroke-opacity="0.2" stroke-width="0.50591"/>
</svg>
