<svg width="254" height="52" viewBox="0 0 254 52" fill="none" xmlns="http://www.w3.org/2000/svg">
<path d="M0.330811 4.58856C0.330811 2.35331 2.14284 0.541279 4.37809 0.541279H249.239C251.474 0.541279 253.286 2.35331 253.286 4.58856V47.085C253.286 49.3202 251.474 51.1323 249.238 51.1323H4.37808C2.14283 51.1323 0.330811 49.3202 0.330811 47.085V25.8368V4.58856Z" fill="white"/>
<path d="M4.37809 0.794234H249.238C251.334 0.794234 253.033 2.49301 253.033 4.58856V47.085C253.033 49.1805 251.334 50.8793 249.238 50.8793H4.37808C2.28254 50.8793 0.583766 49.1805 0.583766 47.085V25.8368V4.58856C0.583766 2.49301 2.28254 0.794234 4.37809 0.794234Z" stroke="#444444" stroke-opacity="0.2" stroke-width="0.50591"/>
</svg>
