<svg width="147" height="52" viewBox="0 0 147 52" fill="none" xmlns="http://www.w3.org/2000/svg">
<path d="M0.463135 4.81771C0.463135 2.58246 2.27516 0.770424 4.51041 0.770424H142.381C144.616 0.770424 146.428 2.58245 146.428 4.8177V47.3141C146.428 49.5494 144.616 51.3614 142.381 51.3614H4.51042C2.27517 51.3614 0.463135 49.5494 0.463135 47.3141V26.0659V4.81771Z" fill="white"/>
<path d="M4.51041 1.02338H142.381C144.476 1.02338 146.175 2.72216 146.175 4.8177V47.3141C146.175 49.4097 144.476 51.1085 142.381 51.1085H4.51042C2.41487 51.1085 0.71609 49.4097 0.71609 47.3141V26.0659V4.81771C0.71609 2.72216 2.41487 1.02338 4.51041 1.02338Z" stroke="#444444" stroke-opacity="0.2" stroke-width="0.50591"/>
</svg>
