<svg width="416" height="51" viewBox="0 0 416 51" fill="none" xmlns="http://www.w3.org/2000/svg">
<path d="M0.330811 4.35939C0.330811 2.12414 2.14284 0.312103 4.37809 0.312103H411.13C413.365 0.312103 415.177 2.12413 415.177 4.35938V46.8558C415.177 49.0911 413.365 50.9031 411.13 50.9031H4.37809C2.14284 50.9031 0.330811 49.0911 0.330811 46.8558V25.6076V4.35939Z" fill="white"/>
<path d="M4.37809 0.565058H411.13C413.225 0.565058 414.924 2.26383 414.924 4.35938V46.8558C414.924 48.9514 413.225 50.6501 411.13 50.6501H4.37809C2.28254 50.6501 0.583766 48.9514 0.583766 46.8558V25.6076V4.35939C0.583766 2.26384 2.28254 0.565058 4.37809 0.565058Z" stroke="#444444" stroke-opacity="0.2" stroke-width="0.50591"/>
</svg>
