<svg width="25" height="25" viewBox="0 0 25 25" fill="none" xmlns="http://www.w3.org/2000/svg">
<path d="M19.5557 4.18684H17.532V3.17502C17.532 2.90667 17.4254 2.64931 17.2357 2.45956C17.0459 2.26981 16.7886 2.1632 16.5202 2.1632C16.2519 2.1632 15.9945 2.26981 15.8047 2.45956C15.615 2.64931 15.5084 2.90667 15.5084 3.17502V4.18684H9.43748V3.17502C9.43748 2.90667 9.33087 2.64931 9.14112 2.45956C8.95137 2.26981 8.69401 2.1632 8.42566 2.1632C8.1573 2.1632 7.89994 2.26981 7.71019 2.45956C7.52044 2.64931 7.41384 2.90667 7.41384 3.17502V4.18684H5.3902C4.58514 4.18684 3.81306 4.50665 3.2438 5.07591C2.67454 5.64517 2.35474 6.41725 2.35474 7.2223V19.3641C2.35474 20.1692 2.67454 20.9413 3.2438 21.5105C3.81306 22.0798 4.58514 22.3996 5.3902 22.3996H19.5557C20.3607 22.3996 21.1328 22.0798 21.7021 21.5105C22.2713 20.9413 22.5911 20.1692 22.5911 19.3641V7.2223C22.5911 6.41725 22.2713 5.64517 21.7021 5.07591C21.1328 4.50665 20.3607 4.18684 19.5557 4.18684ZM20.5675 19.3641C20.5675 19.6325 20.4609 19.8899 20.2711 20.0796C20.0814 20.2694 19.824 20.376 19.5557 20.376H5.3902C5.12184 20.376 4.86448 20.2694 4.67473 20.0796C4.48498 19.8899 4.37838 19.6325 4.37838 19.3641V12.2814H20.5675V19.3641ZM20.5675 10.2578H4.37838V7.2223C4.37838 6.95395 4.48498 6.69659 4.67473 6.50684C4.86448 6.31709 5.12184 6.21048 5.3902 6.21048H7.41384V7.2223C7.41384 7.49065 7.52044 7.74801 7.71019 7.93777C7.89994 8.12752 8.1573 8.23412 8.42566 8.23412C8.69401 8.23412 8.95137 8.12752 9.14112 7.93777C9.33087 7.74801 9.43748 7.49065 9.43748 7.2223V6.21048H15.5084V7.2223C15.5084 7.49065 15.615 7.74801 15.8047 7.93777C15.9945 8.12752 16.2519 8.23412 16.5202 8.23412C16.7886 8.23412 17.0459 8.12752 17.2357 7.93777C17.4254 7.74801 17.532 7.49065 17.532 7.2223V6.21048H19.5557C19.824 6.21048 20.0814 6.31709 20.2711 6.50684C20.4609 6.69659 20.5675 6.95395 20.5675 7.2223V10.2578Z" fill="#0D0D0D"/>
</svg>
