<svg width="17" height="23" viewBox="0 0 17 23" fill="none" xmlns="http://www.w3.org/2000/svg">
<path d="M8.42537 2.9692C10.6514 2.9692 12.4726 4.79047 12.4726 7.01648C12.4726 9.1413 10.3478 12.5815 8.42537 15.0099C6.50291 12.4803 4.37809 9.1413 4.37809 7.01648C4.37809 4.79047 6.19937 2.9692 8.42537 2.9692ZM8.42537 0.945557C5.08636 0.945557 2.35445 3.67747 2.35445 7.01648C2.35445 11.5697 8.42537 18.1465 8.42537 18.1465C8.42537 18.1465 14.4963 11.4685 14.4963 7.01648C14.4963 3.67747 11.7644 0.945557 8.42537 0.945557ZM8.42537 4.99284C7.31237 4.99284 6.40173 5.90347 6.40173 7.01648C6.40173 8.12948 7.31237 9.04012 8.42537 9.04012C9.53837 9.04012 10.449 8.12948 10.449 7.01648C10.449 5.90347 9.53837 4.99284 8.42537 4.99284ZM16.5199 18.1465C16.5199 20.3725 12.8774 22.1938 8.42537 22.1938C3.97336 22.1938 0.330811 20.3725 0.330811 18.1465C0.330811 16.8311 1.54499 15.7181 3.46745 14.9087L4.07454 15.8193C3.06272 16.3252 2.35445 16.9323 2.35445 17.6406C2.35445 19.0571 5.08636 20.1701 8.42537 20.1701C11.7644 20.1701 14.4963 19.0571 14.4963 17.6406C14.4963 16.9323 13.788 16.3252 12.675 15.8193L13.2821 14.9087C15.3057 15.7181 16.5199 16.8311 16.5199 18.1465Z" fill="#0D0D0D"/>
</svg>
